# xmcd
#
# Track frame offsets:
#	150
#	51935
#	155373
#	217216
#
# Disc length: 3253 seconds
#
# Revision: 3
# Processed by: cddbd v1.4PL0 Copyright (c) Steve Scherf et al.
# Submitted via: OrangeCD 4.1
#
DISCID=360cb304
DTITLE=Grateful Dead - Cornell 5/8/77 Disc 3
DYEAR=1900
DGENRE=
TTITLE0=Estimated Prophet
TTITLE1=St. Stephen
TTITLE2=(Walk Me Out) Morning Dew
TTITLE3=One More Saturday Night
EXTD=
EXTT0=
EXTT1=
EXTT2=
EXTT3=
PLAYORDER=
